<svg width="92" height="92" viewBox="0 0 92 92" fill="none" xmlns="http://www.w3.org/2000/svg">
<path d="M73.9558 55.4837C72.7223 46.7632 63.6768 34.3053 59.9763 33.4747C57.9205 33.89 56.2759 35.9663 56.2759 35.9663C54.6313 33.4747 49.2862 26.4153 45.9969 26C42.7076 26.4153 35.1446 38.0084 33.5 40.5C33.5 40.5 30.0558 38.4153 28 38C24.2996 38.8305 19.2715 46.7632 18.038 55.4837C16.8045 64.2043 45.9969 62.9585 45.9969 62.9585C45.9969 62.9585 75.1893 64.2043 73.9558 55.4837Z" fill="#8B2030"/>
<path d="M86 53H42.8201H6C11.0209 65.7694 22.2176 71.9244 32.0084 74.8947C33.046 75.201 33.4142 76.3646 32.7448 77.1455L28.7448 81.7541C27.6067 83.0708 28.6276 85 30.4519 85H61.5481C63.3724 85 64.3933 83.0708 63.2552 81.7541L59.2552 77.1455C58.569 76.3646 58.954 75.201 59.9916 74.8947C69.7824 71.9244 80.9791 65.7694 86 53Z" fill="#4A4A4A"/>
</svg>
