<svg width="92" height="92" viewBox="0 0 92 92" fill="none" xmlns="http://www.w3.org/2000/svg">
<path d="M9.79287 3.17509C9.47498 2.96698 9.06034 2.93924 8.70098 3.11959C7.80259 3.56355 7.77495 4.47921 8.57659 5.0619L49.3221 34.7931C49.9164 35.2232 50.718 35.1538 51.2294 34.6266L52.9986 32.7814C53.6344 32.1155 53.51 31.0333 52.736 30.5339L9.79287 3.17509ZM90.9521 54.896L77.186 46.114C76.5502 45.7116 75.7348 45.7671 75.1543 46.2527L72.1412 48.7777C71.2705 49.4991 71.3258 50.8449 72.238 51.5108L84.6496 60.5703C85.3407 61.0697 86.2391 61.1391 86.9992 60.7506L90.7725 58.8222C92.3205 58.0314 92.431 55.8394 90.9521 54.896Z" fill="#4A4A4A"/>
<path d="M39.4305 49.5103L35.0458 53.3469L49 73.5L53.5 67.5L39.4305 49.5103Z" fill="#8B2030"/>
<path d="M55.4035 32.2543L51.4783 36.3609V36.3748C57.4184 40.6549 63.0304 44.8501 69 49L74.5 44.5L55.4035 32.2543C55.4035 32.2404 55.4174 32.2404 55.4035 32.2543Z" fill="#8B2030"/>
<path d="M3.58698 3.49868C2.96059 2.68444 1.67997 2.90525 1.35981 3.8851C1.24388 4.24005 1.30512 4.72399 1.5 5L33.3196 50.8489C33.8207 51.5666 34.8369 51.6908 35.505 51.1111L37.5652 49.3171C38.1498 48.8064 38.2333 47.9508 37.76 47.3435L3.58698 3.49868ZM65.4465 82.8942L55.8836 70.6116C55.285 69.8387 54.1019 69.8525 53.5172 70.653L50.8168 74.3515C50.4549 74.8484 50.441 75.5246 50.789 76.0352L59.6837 88.8561C60.8251 90.4984 63.3307 90.3466 64.2494 88.5663L65.7249 85.7233C66.1703 84.7987 66.0729 83.7084 65.4465 82.8942Z" fill="#4A4A4A"/>
</svg>
