<svg width="92" height="92" viewBox="0 0 92 92" fill="none" xmlns="http://www.w3.org/2000/svg">
<path d="M52.7644 89H40.2756C35.9228 89 31.8548 87.0867 29.1292 83.7383C26.4036 80.3899 25.3866 76.0849 26.3629 71.8995C29.1699 59.9809 32.9125 44.8336 34.8651 40.2894C37.7534 33.5529 39.4213 30.7626 39.7874 30.1646L44.425 20L53.0899 30.0052C53.1712 30.1248 54.8391 32.636 58.1342 40.2894C60.0869 44.8336 63.8295 60.0208 66.6364 71.9393C67.6128 76.1248 66.5957 80.4298 63.9108 83.7782C61.1853 87.0867 57.1172 89 52.7644 89ZM45.4013 26.6568L43.0012 31.8787L42.9198 31.9983C42.9198 31.9983 41.2926 34.4298 38.2009 41.6447C36.7364 44.9931 33.8074 56.0347 29.9021 72.6967C29.1699 75.8059 29.9021 78.9948 31.9361 81.5061C33.9702 83.9775 36.9805 85.4125 40.2349 85.4125H52.7238C55.9782 85.4125 58.9885 83.9775 61.0225 81.5061C63.0566 79.0347 63.7888 75.8059 63.0566 72.6967C59.1512 56.0347 56.2223 45.0329 54.7578 41.6447C51.9915 35.1473 50.405 32.5165 50.1202 32.078L45.4013 26.6568Z" fill="#4A4A4A"/>
<path d="M60.795 74.0737C59.7546 69.821 58.8046 66.1579 57.9904 63H35.0104C34.1961 66.1579 33.2462 69.821 32.2057 74.0737C31.6629 76.2632 32.2057 78.4947 33.6985 80.2632C35.1913 81.9895 37.4079 83 39.8054 83H53.1501C55.5476 83 57.7642 81.9895 59.257 80.2632C60.795 78.4947 61.3378 76.2632 60.795 74.0737Z" fill="#8B2030"/>
<path d="M35.3825 20H28.8351C28.247 20 27.855 20.5868 28.051 21.1737L29.6192 26.3713C29.7369 26.7485 30.0505 27 30.4034 27H36.1667C36.6763 27 37.0684 26.497 36.99 25.9521L36.2059 20.7545C36.1274 20.3353 35.7746 20 35.3825 20Z" fill="#4A4A4A"/>
<path d="M31.2066 18.1698L36.0562 31.0331C36.5144 32.2133 37.5836 33 38.8056 33H54.1944C55.4164 33 56.5238 32.2133 56.9438 31.0331L61.7934 18.1698C62.5571 16.1636 61.106 14 59.044 14H33.956C31.894 14 30.4429 16.1636 31.2066 18.1698Z" fill="#4A4A4A"/>
</svg>
