<svg width="92" height="92" viewBox="0 0 92 92" fill="none" xmlns="http://www.w3.org/2000/svg">
<path d="M23.8201 57.9512C23.8201 57.9512 19.0979 48.8723 27.8744 42.103C36.651 35.3337 45.6502 40.7969 47.1765 26C55.6033 28.1503 73.2995 38.0414 66.256 58.2697C59.2125 78.498 23.8201 57.9512 23.8201 57.9512Z" fill="#507625"/>
<path d="M86 53H42.8201H6C11.0209 65.7694 22.2176 71.9244 32.0084 74.8947C33.046 75.201 33.4142 76.3646 32.7448 77.1455L28.7448 81.7541C27.6067 83.0708 28.6276 85 30.4519 85H61.5481C63.3724 85 64.3933 83.0708 63.2552 81.7541L59.2552 77.1455C58.569 76.3646 58.954 75.201 59.9916 74.8947C69.7824 71.9244 80.9791 65.7694 86 53Z" fill="#4A4A4A"/>
</svg>
